<svg xmlns="http://www.w3.org/2000/svg" width="53.833" height="53.833" viewBox="5.383 5.383 53.833 53.833"><path d="M51.142 59.217H13.458a8.075 8.075 0 0 1-8.075-8.075V8.075a2.692 2.692 0 0 1 2.692-2.692h37.683a2.692 2.692 0 0 1 2.692 2.692v32.3h10.767v10.767a8.075 8.075 0 0 1-8.075 8.075ZM48.45 45.758v5.384a2.692 2.692 0 1 0 5.383 0v-5.384H48.45Zm-5.383 8.075V10.767h-32.3v40.375a2.692 2.692 0 0 0 2.691 2.691h29.609ZM16.15 18.842h21.533v5.383H16.15v-5.383Zm0 10.766h21.533v5.384H16.15v-5.384Zm0 10.767h13.458v5.383H16.15v-5.383Z" fill="#e4e4e4" fill-rule="evenodd" data-name="Path 10"/></svg>