<svg xmlns="http://www.w3.org/2000/svg" width="1128.998" height="1969.002" viewBox="-1.998 -121 1128.998 1969.002"><g data-name="Subtraction 1"><path d="M21703.002 24359.998c-18.248 0-36.711-.586-54.871-1.738a862.419 862.419 0 0 1-54.02-5.16 860.156 860.156 0 0 1-53.076-8.477 860.162 860.162 0 0 1-52.035-11.697V22418.07a861.13 861.13 0 0 1 52.035-11.697 861.103 861.103 0 0 1 53.076-8.477 862.419 862.419 0 0 1 54.02-5.16 870.544 870.544 0 0 1 54.871-1.74c15.666 0 31.508.434 47.086 1.28a864.678 864.678 0 0 1 46.467 3.804 860.494 860.494 0 0 1 45.793 6.26 859.344 859.344 0 0 1 45.058 8.66 860.715 860.715 0 0 1 44.268 10.99 862.59 862.59 0 0 1 43.42 13.268 866.236 866.236 0 0 1 42.515 15.48 874.14 874.14 0 0 1 41.551 17.627 876.215 876.215 0 0 1 40.531 19.717 887.198 887.198 0 0 1 39.454 21.74c25.742 15.045 51.123 31.637 75.44 49.313 24.188 17.58 47.888 36.648 70.44 56.676a951.124 951.124 0 0 1 64.977 63.54 971.214 971.214 0 0 1 59.055 69.913 989.576 989.576 0 0 1 52.673 75.79 1004.93 1004.93 0 0 1 45.833 81.173 1017.89 1017.89 0 0 1 38.529 86.06 1029.986 1029.986 0 0 1 30.77 90.45 1043.646 1043.646 0 0 1 22.548 94.349 1057.741 1057.741 0 0 1 13.865 97.752 1073.08 1073.08 0 0 1 3.534 49.998c.789 16.771 1.189 33.816 1.189 50.662 0 16.846-.4 33.89-1.19 50.662a1072.24 1072.24 0 0 1-3.533 49.996 1057.647 1057.647 0 0 1-13.865 97.752 1042.802 1042.802 0 0 1-22.549 94.35 1030.012 1030.012 0 0 1-30.77 90.451 1017.573 1017.573 0 0 1-38.529 86.059 1004.261 1004.261 0 0 1-45.832 81.171 989.576 989.576 0 0 1-52.673 75.791 971.897 971.897 0 0 1-59.055 69.915 952.52 952.52 0 0 1-64.977 63.54 931.105 931.105 0 0 1-70.44 56.676c-24.315 17.676-49.698 34.268-75.44 49.313a888.744 888.744 0 0 1-39.454 21.74 880.377 880.377 0 0 1-40.53 19.717 874.14 874.14 0 0 1-41.552 17.627 866.951 866.951 0 0 1-42.515 15.478 860.571 860.571 0 0 1-43.42 13.268 858.756 858.756 0 0 1-44.268 10.992 859.732 859.732 0 0 1-45.058 8.66 857.581 857.581 0 0 1-45.793 6.26 864.678 864.678 0 0 1-46.467 3.805 872.526 872.526 0 0 1-47.086 1.277Z" fill-rule="evenodd" fill="url(&quot;#a&quot;)" transform="translate(-21490.998 -22511.996)"/><path d="M21703.002 24359.998c-18.248 0-36.711-.586-54.871-1.738a862.419 862.419 0 0 1-54.02-5.16 860.156 860.156 0 0 1-53.076-8.477 860.162 860.162 0 0 1-52.035-11.697V22418.07a861.13 861.13 0 0 1 52.035-11.697 861.103 861.103 0 0 1 53.076-8.477 862.419 862.419 0 0 1 54.02-5.16 870.544 870.544 0 0 1 54.871-1.74c15.666 0 31.508.434 47.086 1.28a864.678 864.678 0 0 1 46.467 3.804 860.494 860.494 0 0 1 45.793 6.26 859.344 859.344 0 0 1 45.058 8.66 860.715 860.715 0 0 1 44.268 10.99 862.59 862.59 0 0 1 43.42 13.268 866.236 866.236 0 0 1 42.515 15.48 874.14 874.14 0 0 1 41.551 17.627 876.215 876.215 0 0 1 40.531 19.717 887.198 887.198 0 0 1 39.454 21.74c25.742 15.045 51.123 31.637 75.44 49.313 24.188 17.58 47.888 36.648 70.44 56.676a951.124 951.124 0 0 1 64.977 63.54 971.214 971.214 0 0 1 59.055 69.913 989.576 989.576 0 0 1 52.673 75.79 1004.93 1004.93 0 0 1 45.833 81.173 1017.89 1017.89 0 0 1 38.529 86.06 1029.986 1029.986 0 0 1 30.77 90.45 1043.646 1043.646 0 0 1 22.548 94.349 1057.741 1057.741 0 0 1 13.865 97.752 1073.08 1073.08 0 0 1 3.534 49.998c.789 16.771 1.189 33.816 1.189 50.662 0 16.846-.4 33.89-1.19 50.662a1072.24 1072.24 0 0 1-3.533 49.996 1057.647 1057.647 0 0 1-13.865 97.752 1042.802 1042.802 0 0 1-22.549 94.35 1030.012 1030.012 0 0 1-30.77 90.451 1017.573 1017.573 0 0 1-38.529 86.059 1004.261 1004.261 0 0 1-45.832 81.171 989.576 989.576 0 0 1-52.673 75.791 971.897 971.897 0 0 1-59.055 69.915 952.52 952.52 0 0 1-64.977 63.54 931.105 931.105 0 0 1-70.44 56.676c-24.315 17.676-49.698 34.268-75.44 49.313a888.744 888.744 0 0 1-39.454 21.74 880.377 880.377 0 0 1-40.53 19.717 874.14 874.14 0 0 1-41.552 17.627 866.951 866.951 0 0 1-42.515 15.478 860.571 860.571 0 0 1-43.42 13.268 858.756 858.756 0 0 1-44.268 10.992 859.732 859.732 0 0 1-45.058 8.66 857.581 857.581 0 0 1-45.793 6.26 864.678 864.678 0 0 1-46.467 3.805 872.526 872.526 0 0 1-47.086 1.277Z" stroke-linejoin="round" stroke-linecap="round" stroke="#707070" fill="transparent" transform="matrix(.99907 0 0 .99945 -21470.464 -22499.23)"/></g><defs><radialGradient fx=".419" fy=".485" cx=".419" cy=".485" fr="0" r=".67" gradientTransform="matrix(.71407 -.70007 .6862 .69993 -.213 .439)" id="a"><stop stop-color="#9ec7fc" offset="0"/><stop stop-color="#236bc9" offset="1"/></radialGradient></defs></svg>